<svg width="40" height="32" viewBox="0 0 40 32" fill="none" xmlns="http://www.w3.org/2000/svg">
<path d="M2.93757 30.1589C5.23191 32.6137 9.11464 32.6137 11.5855 30.1589C13.8798 27.7041 13.8798 24.0219 11.409 21.7425C10.1736 20.5151 8.76166 20.1644 7.34976 19.8137C4.52596 19.2877 0.290251 9.4685 13.8798 0.526031L13.5268 0C6.29083 3.68219 4.70245 7.18904 2.76108 10.3452C-1.12165 17.5343 -0.768676 26.6521 2.93757 30.1589ZM29.0578 30.1589C31.3521 32.6137 35.2348 32.6137 37.7057 30.1589C40 27.7041 40 24.0219 37.5292 21.7425C36.2938 20.5151 34.8819 20.1644 33.47 19.8137C30.6461 19.2877 26.4104 9.4685 40 0.526031L39.647 0C32.411 3.68219 30.8226 7.18904 28.8813 10.3452C24.9985 17.5343 25.3515 26.6521 29.0578 30.1589Z" fill="#9D875C"/>
</svg>
