<svg width="174" height="433" viewBox="0 0 174 433" fill="none" xmlns="http://www.w3.org/2000/svg">
<g style="mix-blend-mode:screen">
<g style="mix-blend-mode:screen">
<path d="M87.1718 435.093L87.3946 435H87.5246C87.842 434.747 88.0484 434.381 88.1002 433.979C88.1365 433.632 88.0453 433.285 87.8436 433.001C87.6419 432.717 87.3436 432.517 87.0046 432.437H86.6147H86.3547H86.2433H86.0947H86.0019C85.8493 432.551 85.7225 432.696 85.6297 432.863C85.5369 433.029 85.4802 433.213 85.4634 433.403C85.4404 433.672 85.4883 433.942 85.6024 434.186C85.7164 434.431 85.8926 434.641 86.1133 434.796H86.2619H86.4661H86.6332H87.1718V435.093Z" fill="#DFCBB3"/>
</g>
<g style="mix-blend-mode:screen">
<path d="M24.9457 429.299H25.0757H25.28H25.7814H25.8928C26.1226 429.27 26.3406 429.181 26.5241 429.039L26.6727 428.891L26.8027 428.649V428.463V427.962V427.814C26.7666 427.574 26.6778 427.346 26.5427 427.145L26.3941 427.015L26.1342 426.867H25.9485H25.4471H25.2243L25.0757 426.737L24.7229 426.514H24.5372H24.2772H24.073C23.6653 426.601 23.299 426.824 23.0331 427.145L22.8288 427.405V427.554V427.776V427.944V428.333V428.501L22.9217 428.705V428.853C23.0781 429.041 23.2741 429.192 23.4956 429.294C23.7172 429.397 23.9587 429.449 24.203 429.448C24.4593 429.465 24.7157 429.414 24.9457 429.299Z" fill="#D59C38"/>
</g>
<g style="mix-blend-mode:screen">
<path d="M30.4608 393.386L30.2008 393.887V394.147V394.537L30.2937 394.797L30.4236 395.002V395.132V395.354C30.5943 395.775 30.8769 396.141 31.2407 396.413L31.5192 396.506H31.9463H32.2434L32.7263 396.171L32.9119 395.911L33.0419 395.503V395.206V394.927C33.0419 394.742 32.9305 394.537 32.8562 394.333C32.736 393.997 32.5215 393.702 32.2382 393.485C31.955 393.268 31.6151 393.137 31.2593 393.107H30.9807L30.6465 393.293L30.4608 393.386Z" fill="#662B02"/>
</g>
<g style="mix-blend-mode:screen">
<path d="M15.7353 433.459L15.8467 433.719V433.83V433.96L15.9396 434.053L16.181 434.257H16.3481H16.4781C16.7294 434.307 16.9895 434.289 17.2312 434.204C17.473 434.119 17.6875 433.971 17.8522 433.774C18.0114 433.566 18.1153 433.32 18.1543 433.06C18.1932 432.8 18.166 432.535 18.0751 432.289C17.9964 432.077 17.87 431.887 17.7057 431.732C17.5415 431.578 17.3438 431.463 17.128 431.397C16.9413 431.343 16.7449 431.329 16.5525 431.358C16.36 431.387 16.1762 431.457 16.0139 431.565C15.7302 431.782 15.5425 432.102 15.4905 432.455C15.4385 432.809 15.5263 433.169 15.7353 433.459Z" fill="#F9F6D2"/>
</g>
<g style="mix-blend-mode:screen">
<path d="M63.8672 404.806V404.602V404.323V404.119V403.952V403.84V403.618L63.7186 403.135L63.6072 402.949L63.3658 402.726L63.1801 402.596C62.9932 402.521 62.7921 402.489 62.5911 402.5C62.3901 402.512 62.1941 402.567 62.0169 402.663C61.8398 402.759 61.6858 402.892 61.5659 403.054C61.4461 403.216 61.3632 403.402 61.3231 403.599L61.4717 403.915L61.3603 404.156L61.5831 404.695V404.917C61.7094 405.142 61.897 405.326 62.1239 405.447C62.3508 405.569 62.6076 405.623 62.8644 405.604C63.0876 405.573 63.2983 405.482 63.4746 405.342C63.651 405.202 63.7865 405.016 63.8672 404.806Z" fill="#EADECF"/>
</g>
<g style="mix-blend-mode:screen">
<path d="M29.7553 402.021H29.9224L30.1638 401.873L30.3123 401.743L30.5537 401.39V401.223V400.944V400.758C30.5306 400.533 30.4567 400.316 30.3378 400.123C30.2188 399.93 30.0577 399.766 29.8667 399.644H29.7367H29.4024H29.0496C28.7308 399.747 28.4632 399.968 28.3011 400.261C28.139 400.554 28.0946 400.898 28.1769 401.223C28.2975 401.525 28.5245 401.773 28.8151 401.92C29.1058 402.067 29.4401 402.103 29.7553 402.021Z" fill="#C47F1E"/>
</g>
<g style="mix-blend-mode:screen">
<path d="M0.508436 435.613L0.638421 435.836L0.879823 436.096L1.10266 436.226L1.6226 436.356H1.864L2.16111 436.263L2.2911 436.374L2.56964 436.523H2.79247H3.40526C3.70092 436.506 3.98515 436.403 4.22232 436.226C4.44877 436.034 4.60077 435.77 4.65169 435.478C4.70261 435.186 4.64922 434.885 4.50086 434.629L4.38944 434.499L4.22232 434.332L4.07376 434.239L3.70237 434.072H3.55382H3.38669V433.756C3.39134 433.491 3.33905 433.227 3.23334 432.984C3.12763 432.74 2.97097 432.522 2.7739 432.345L2.5325 432.233H2.14254H1.88257L1.3812 432.456L1.15837 432.623L0.954101 432.92L0.861255 433.18C0.826941 433.366 0.770844 433.546 0.69413 433.719C0.432747 434.314 0.36771 434.978 0.508436 435.613Z" fill="#E7B851"/>
</g>
<g style="mix-blend-mode:screen">
<path d="M17.908 411.138V411.38V411.565C18.0206 411.835 18.2013 412.071 18.4324 412.25C18.6635 412.429 18.9371 412.545 19.2264 412.587C19.4772 412.627 19.7341 412.608 19.9761 412.531C20.218 412.453 20.4384 412.32 20.6191 412.141C20.8665 411.907 21.0506 411.614 21.1545 411.289C21.2584 410.964 21.2786 410.619 21.2133 410.284C21.138 409.987 20.9848 409.714 20.7694 409.496C20.554 409.277 20.2842 409.12 19.9877 409.04H19.8206H19.5606H19.3749L19.0036 409.226H18.855L18.6693 409.43V409.541L18.5393 409.709C18.2515 410.019 18.0582 410.406 17.9822 410.823L17.908 411.138Z" fill="#EADECF"/>
</g>
<g style="mix-blend-mode:screen">
<path d="M10.3502 408.26C10.1384 408.308 9.93856 408.399 9.76296 408.526C9.58736 408.654 9.43964 408.816 9.32884 409.003V409.189V409.449V409.653L9.44026 410.061V410.228L9.58881 410.433L9.7188 410.563C9.93789 410.706 10.1847 410.8 10.443 410.841L10.7401 410.953H10.9629H11.4458H11.6686L11.9286 410.786L12.0957 410.618C12.3055 410.288 12.3765 409.888 12.293 409.505C12.2095 409.123 11.9785 408.789 11.65 408.576C11.4679 408.434 11.2579 408.333 11.0339 408.279C10.8098 408.224 10.5768 408.218 10.3502 408.26Z" fill="#793903"/>
</g>
<g style="mix-blend-mode:screen">
<path d="M15.3268 413.069L15.4568 412.865V412.717C15.5536 412.326 15.4936 411.912 15.2897 411.565C15.1132 411.249 14.8206 411.015 14.474 410.911C14.1274 410.807 13.754 410.842 13.4327 411.008H13.3027L13.117 411.212V411.305V411.454V411.547C13.0245 411.924 13.0776 412.321 13.2656 412.661C13.4153 412.887 13.6197 413.072 13.8599 413.199C14.1001 413.326 14.3683 413.39 14.6397 413.385H14.7883H15.0111H15.1597L15.4568 413.144L15.3268 413.069Z" fill="#C47F1E"/>
</g>
<g style="mix-blend-mode:screen">
<path d="M41.8253 343.769L41.9738 343.528V343.416V343.249V342.692V342.507V342.395C41.862 342.166 41.6876 341.973 41.4708 341.838C41.2539 341.703 41.0035 341.632 40.7483 341.634C40.4852 341.631 40.2263 341.699 39.9979 341.829C39.7695 341.96 39.5799 342.149 39.4484 342.377C39.3296 342.57 39.2591 342.789 39.243 343.015C39.2268 343.241 39.2654 343.468 39.3556 343.676C39.4228 343.856 39.5321 344.018 39.6742 344.147C39.8163 344.276 39.9872 344.369 40.1726 344.419C40.4799 344.532 40.8178 344.528 41.1224 344.408C41.427 344.288 41.6771 344.061 41.8253 343.769Z" fill="#9F5504"/>
</g>
<g style="mix-blend-mode:screen">
<path d="M-0.550087 356.879L-0.401532 357.009L-0.141561 357.139H0.0441337H0.248397L0.452661 357.232H0.954034H1.25114H1.56682L1.77109 357.121C1.9147 356.99 2.02945 356.831 2.10797 356.653C2.18649 356.476 2.22705 356.284 2.22705 356.09C2.22705 355.896 2.18649 355.704 2.10797 355.526C2.02945 355.349 1.9147 355.19 1.77109 355.059H1.41827L1.26971 354.855H0.675494L0.489799 354.744C0.235201 354.734 -0.0167024 354.799 -0.2346 354.931C-0.452497 355.063 -0.626779 355.256 -0.735782 355.486C-0.848762 355.71 -0.891483 355.963 -0.858347 356.211C-0.825211 356.46 -0.717763 356.693 -0.550087 356.879Z" fill="#E7D8C6"/>
</g>
<g style="mix-blend-mode:screen">
<path d="M55.4924 364.715V365.105V365.291V365.551V365.718L55.7153 366.071L55.8453 366.201L56.0495 366.35H56.2167C56.425 366.411 56.6444 366.427 56.8594 366.395C57.0743 366.363 57.2796 366.284 57.4608 366.164C57.6319 366.043 57.7762 365.889 57.8848 365.71C57.9935 365.531 58.0641 365.331 58.0922 365.124V364.808V364.548L57.9993 364.381L57.7579 364.065L57.6094 363.936L57.3865 363.806H57.2194H56.8109H56.6252H56.3652H56.1795L55.8267 364.047L55.6039 364.307L55.4739 364.53L55.4924 364.715Z" fill="#431B06"/>
</g>
<g style="mix-blend-mode:screen">
<path d="M12.3555 399.774L12.7826 399.422L12.9126 399.254L13.0426 398.976V398.79C13.0622 398.569 13.0324 398.345 12.9554 398.137C12.8783 397.928 12.7559 397.739 12.5969 397.583C12.4475 397.449 12.2695 397.351 12.0764 397.297C11.8833 397.242 11.6803 397.232 11.4828 397.268H11.3342L11.13 397.379H11L10.74 397.658L10.6286 397.787V398.01V398.177C10.5934 398.501 10.6652 398.826 10.8329 399.105C11.0006 399.383 11.255 399.599 11.5571 399.719H11.817H12.1884L12.3555 399.774Z" fill="#9F5504"/>
</g>
<g style="mix-blend-mode:screen">
<path d="M1.54827 426.514L1.65969 426.644H1.75253L2.03107 426.848H2.14249H2.29105H2.42103C2.67268 426.881 2.92852 426.837 3.15424 426.721C3.37995 426.605 3.56472 426.422 3.68375 426.198C3.83037 425.938 3.8963 425.64 3.87316 425.343C3.85001 425.045 3.73883 424.761 3.55377 424.527L3.36807 424.378L3.05239 424.23H2.81099H2.30962H2.06821L1.78967 424.415L1.62255 424.583C1.46576 424.804 1.36958 425.063 1.34352 425.334C1.31747 425.604 1.36244 425.876 1.47399 426.124L1.54827 426.514Z" fill="#F9DD85"/>
</g>
<g style="mix-blend-mode:screen">
<path d="M34.4532 345.737V345.477V345.273C34.3817 344.948 34.1868 344.664 33.9096 344.48C33.6323 344.297 33.2946 344.228 32.9677 344.289H32.8005L32.5963 344.4L32.4663 344.512L32.3177 344.623L32.132 344.809V344.957L31.9835 345.292V345.44V345.83C32.027 346.022 32.1087 346.203 32.2235 346.362C32.3383 346.522 32.484 346.656 32.652 346.759C32.824 346.852 33.0136 346.908 33.2086 346.924C33.4036 346.94 33.5998 346.915 33.7847 346.851L34.1004 346.721L34.249 346.61L34.4347 346.406V346.239L34.5646 345.83L34.4532 345.737Z" fill="#E3D1BD"/>
</g>
<g style="mix-blend-mode:screen">
<path d="M1.2326 344.531L1.06547 344.661L0.879776 344.884L0.768361 345.069C0.643795 345.246 0.566443 345.451 0.543688 345.665C0.520932 345.88 0.553531 346.097 0.638374 346.295L0.749791 346.481L0.972623 346.685L1.13975 346.778L1.65969 346.963H1.75254C2.06164 346.977 2.36712 346.893 2.6253 346.722L2.77386 346.611L2.88527 346.443L3.01526 346.184V345.998V345.385V345.144L2.90384 344.958C2.72054 344.701 2.45219 344.517 2.14631 344.439C1.84043 344.361 1.51675 344.393 1.2326 344.531Z" fill="#D6BDA1"/>
</g>
<g style="mix-blend-mode:screen">
<path d="M27.7497 392.161H27.6011H27.3783H26.5241H26.3198L26.0599 392.291L25.9113 392.402C25.6856 392.65 25.5414 392.961 25.4983 393.293C25.4551 393.625 25.515 393.962 25.6699 394.259L25.8928 394.389L26.227 394.575L26.4498 394.76H27.0255H27.2855L27.5826 394.575L27.3969 394.278L27.7497 394.389L27.5269 394.203H27.434L27.824 394.445C27.9896 394.304 28.1209 394.127 28.2078 393.927C28.2947 393.728 28.3349 393.511 28.3253 393.294C28.34 393.07 28.2943 392.847 28.193 392.648C28.0917 392.449 27.9386 392.28 27.7497 392.161Z" fill="#F9D46B"/>
</g>
<g style="mix-blend-mode:screen">
<path d="M2.75536 308.172V307.93V307.726C2.61699 307.425 2.36886 307.188 2.06168 307.064C1.7545 306.94 1.41146 306.937 1.10268 307.058L0.954127 307.15L0.768434 307.299L0.657017 307.429L0.527031 307.559L0.378476 307.782V307.949V308.302V308.45V308.673V308.822C0.455608 309.006 0.57199 309.171 0.719514 309.306C0.867038 309.441 1.04216 309.542 1.23267 309.602C1.41651 309.663 1.61168 309.684 1.80426 309.661C1.99685 309.639 2.1821 309.574 2.34683 309.472L2.64394 309.286L2.75536 309.137L2.88535 308.915V308.729V308.32L2.75536 308.172Z" fill="#F9E59F"/>
</g>
<g style="mix-blend-mode:screen">
<path d="M16.2924 349.043L16.6081 349.191H16.9795H17.1652L17.7037 349.024L17.9265 348.857L18.1679 348.56L18.2793 348.319V348.226C18.3374 348.029 18.3537 347.823 18.3271 347.62C18.3005 347.416 18.2316 347.221 18.1249 347.046C18.0181 346.871 17.876 346.72 17.7075 346.604C17.539 346.487 17.3479 346.407 17.1466 346.369H16.9609H16.7195H16.5524L16.2181 346.555L16.0696 346.666L15.9024 346.852V347.019C15.7285 347.35 15.6723 347.731 15.7432 348.099C15.814 348.467 16.0077 348.8 16.2924 349.043Z" fill="#EADECF"/>
</g>
<g style="mix-blend-mode:screen">
<path d="M6.02364 339.74L6.13506 339.535V339.368C6.19191 338.972 6.09925 338.568 5.87508 338.236C5.67216 337.949 5.37065 337.746 5.02812 337.668C4.6856 337.589 4.32605 337.639 4.01814 337.808L3.90673 337.92L3.60962 338.31V338.458V338.57C3.54681 338.947 3.63341 339.333 3.85102 339.647C4.00708 339.87 4.22078 340.046 4.46933 340.158C4.71787 340.269 4.99194 340.311 5.26229 340.278H5.42942L5.46656 340.167L5.59654 340.074L5.87508 339.833L6.02364 339.74Z" fill="#E7D8C6"/>
</g>
<path d="M159.955 834.34L192.782 801.514L-480.816 127.921L-513.642 160.748L159.955 834.34Z" fill="url(#paint0_linear_1_5410)"/>
<path d="M186.877 807.413L192.786 801.504L-480.812 127.912L-486.721 133.82L186.877 807.413Z" fill="url(#paint1_linear_1_5410)"/>
<path d="M343.592 718.423L345.64 716.375L-370.316 0.423081L-372.365 2.47143L343.592 718.423Z" fill="url(#paint2_linear_1_5410)"/>
<path d="M247.02 818.685L249.069 816.636L-466.888 100.685L-468.936 102.733L247.02 818.685Z" fill="url(#paint3_linear_1_5410)"/>
<path d="M130.957 881.831L133.005 879.783L-582.952 163.831L-585 165.879L130.957 881.831Z" fill="url(#paint4_linear_1_5410)"/>
<path d="M379.788 719.677L381.836 717.628L-334.12 1.67674L-336.169 3.7251L379.788 719.677Z" fill="url(#paint5_linear_1_5410)"/>
<path d="M454.196 718L456.245 715.951L-259.712 -0.000258673L-261.76 2.0481L454.196 718Z" fill="url(#paint6_linear_1_5410)"/>
<path d="M204.814 866.494L206.863 864.446L-509.094 148.494L-511.142 150.542L204.814 866.494Z" fill="url(#paint7_linear_1_5410)"/>
<g style="mix-blend-mode:screen">
<path d="M-118.15 408.557C-205.166 321.542 -269.825 245.148 -262.583 237.869C-255.341 230.589 -178.909 295.266 -91.8931 382.282C-4.87682 469.297 59.8004 545.692 52.5398 552.971C45.2792 560.25 -31.134 495.573 -118.15 408.557Z" fill="url(#paint8_radial_1_5410)"/>
</g>
<g style="mix-blend-mode:screen">
<path d="M-94.8084 289.528C-143.683 240.617 -180.042 197.647 -175.957 193.469C-171.871 189.291 -128.92 225.836 -79.9529 274.766C-30.9853 323.696 5.28072 366.647 1.19545 370.732C-2.88982 374.817 -45.8409 338.458 -94.8084 289.528Z" fill="url(#paint10_radial_1_5410)"/>
</g>
</g>
<defs>
<linearGradient id="paint0_linear_1_5410" x1="237.924" y1="876.857" x2="-570.912" y2="73.2668" gradientUnits="userSpaceOnUse">
<stop stop-color="#F4EFEA"/>
<stop offset="0.06" stop-color="#F3EDE8"/>
<stop offset="0.53" stop-color="#EEE3D8"/>
<stop offset="0.99" stop-color="#E3D1BD"/>
</linearGradient>
<linearGradient id="paint1_linear_1_5410" x1="-403.683" y1="210.949" x2="4.33312" y2="618.968" gradientUnits="userSpaceOnUse">
<stop stop-color="#F4E0AE"/>
<stop offset="0.2" stop-color="#EACD8C"/>
<stop offset="0.32" stop-color="#E5C47C"/>
<stop offset="0.36" stop-color="#E0BE77"/>
<stop offset="0.42" stop-color="#D2AD69"/>
<stop offset="0.5" stop-color="#BC9152"/>
<stop offset="0.54" stop-color="#AA7A40"/>
<stop offset="0.62" stop-color="#C09657"/>
<stop offset="0.72" stop-color="#D4AF6B"/>
<stop offset="0.8" stop-color="#E1BF78"/>
<stop offset="0.87" stop-color="#E5C47C"/>
</linearGradient>
<linearGradient id="paint2_linear_1_5410" x1="-286.333" y1="86.6114" x2="147.34" y2="520.287" gradientUnits="userSpaceOnUse">
<stop stop-color="#F4E0AE"/>
<stop offset="0.2" stop-color="#EACD8C"/>
<stop offset="0.32" stop-color="#E5C47C"/>
<stop offset="0.36" stop-color="#E0BE77"/>
<stop offset="0.42" stop-color="#D2AD69"/>
<stop offset="0.5" stop-color="#BC9152"/>
<stop offset="0.54" stop-color="#AA7A40"/>
<stop offset="0.62" stop-color="#C09657"/>
<stop offset="0.72" stop-color="#D4AF6B"/>
<stop offset="0.8" stop-color="#E1BF78"/>
<stop offset="0.87" stop-color="#E5C47C"/>
</linearGradient>
<linearGradient id="paint3_linear_1_5410" x1="-382.905" y1="186.873" x2="50.7679" y2="620.549" gradientUnits="userSpaceOnUse">
<stop stop-color="#F4E0AE"/>
<stop offset="0.2" stop-color="#EACD8C"/>
<stop offset="0.32" stop-color="#E5C47C"/>
<stop offset="0.36" stop-color="#E0BE77"/>
<stop offset="0.42" stop-color="#D2AD69"/>
<stop offset="0.5" stop-color="#BC9152"/>
<stop offset="0.54" stop-color="#AA7A40"/>
<stop offset="0.62" stop-color="#C09657"/>
<stop offset="0.72" stop-color="#D4AF6B"/>
<stop offset="0.8" stop-color="#E1BF78"/>
<stop offset="0.87" stop-color="#E5C47C"/>
</linearGradient>
<linearGradient id="paint4_linear_1_5410" x1="-498.955" y1="250.033" x2="-65.2824" y2="683.708" gradientUnits="userSpaceOnUse">
<stop stop-color="#F4E0AE"/>
<stop offset="0.2" stop-color="#EACD8C"/>
<stop offset="0.32" stop-color="#E5C47C"/>
<stop offset="0.36" stop-color="#E0BE77"/>
<stop offset="0.42" stop-color="#D2AD69"/>
<stop offset="0.5" stop-color="#BC9152"/>
<stop offset="0.54" stop-color="#AA7A40"/>
<stop offset="0.62" stop-color="#C09657"/>
<stop offset="0.72" stop-color="#D4AF6B"/>
<stop offset="0.8" stop-color="#E1BF78"/>
<stop offset="0.87" stop-color="#E5C47C"/>
</linearGradient>
<linearGradient id="paint5_linear_1_5410" x1="-250.032" y1="87.8126" x2="183.641" y2="521.489" gradientUnits="userSpaceOnUse">
<stop stop-color="#F4E0AE"/>
<stop offset="0.2" stop-color="#EACD8C"/>
<stop offset="0.32" stop-color="#E5C47C"/>
<stop offset="0.36" stop-color="#E0BE77"/>
<stop offset="0.42" stop-color="#D2AD69"/>
<stop offset="0.5" stop-color="#BC9152"/>
<stop offset="0.54" stop-color="#AA7A40"/>
<stop offset="0.62" stop-color="#C09657"/>
<stop offset="0.72" stop-color="#D4AF6B"/>
<stop offset="0.8" stop-color="#E1BF78"/>
<stop offset="0.87" stop-color="#E5C47C"/>
</linearGradient>
<linearGradient id="paint6_linear_1_5410" x1="-175.716" y1="86.175" x2="257.957" y2="519.851" gradientUnits="userSpaceOnUse">
<stop stop-color="#F4E0AE"/>
<stop offset="0.2" stop-color="#EACD8C"/>
<stop offset="0.32" stop-color="#E5C47C"/>
<stop offset="0.36" stop-color="#E0BE77"/>
<stop offset="0.42" stop-color="#D2AD69"/>
<stop offset="0.5" stop-color="#BC9152"/>
<stop offset="0.54" stop-color="#AA7A40"/>
<stop offset="0.62" stop-color="#C09657"/>
<stop offset="0.72" stop-color="#D4AF6B"/>
<stop offset="0.8" stop-color="#E1BF78"/>
<stop offset="0.87" stop-color="#E5C47C"/>
</linearGradient>
<linearGradient id="paint7_linear_1_5410" x1="-424.993" y1="234.617" x2="8.6803" y2="668.293" gradientUnits="userSpaceOnUse">
<stop stop-color="#F4E0AE"/>
<stop offset="0.2" stop-color="#EACD8C"/>
<stop offset="0.32" stop-color="#E5C47C"/>
<stop offset="0.36" stop-color="#E0BE77"/>
<stop offset="0.42" stop-color="#D2AD69"/>
<stop offset="0.5" stop-color="#BC9152"/>
<stop offset="0.54" stop-color="#AA7A40"/>
<stop offset="0.62" stop-color="#C09657"/>
<stop offset="0.72" stop-color="#D4AF6B"/>
<stop offset="0.8" stop-color="#E1BF78"/>
<stop offset="0.87" stop-color="#E5C47C"/>
</linearGradient>
<radialGradient id="paint8_radial_1_5410" cx="0" cy="0" r="1" gradientUnits="userSpaceOnUse" gradientTransform="translate(-47.6922 338.063) rotate(135) scale(17.831 222.888)">
<stop stop-color="#8C4703"/>
<stop offset="0.09" stop-color="#7B3F03"/>
<stop offset="0.49" stop-color="#391D01"/>
<stop offset="0.78" stop-color="#100800"/>
<stop offset="0.93"/>
</radialGradient>
<radialGradient id="paint9_radial_1_5410" cx="0" cy="0" r="1" gradientUnits="userSpaceOnUse" gradientTransform="translate(-32.6477 227.377) rotate(135) scale(17.831 222.888)">
<stop stop-color="#8C4703"/>
<stop offset="0.09" stop-color="#7B3F03"/>
<stop offset="0.49" stop-color="#391D01"/>
<stop offset="0.78" stop-color="#100800"/>
<stop offset="0.93"/>
</radialGradient>
<radialGradient id="paint10_radial_1_5410" cx="0" cy="0" r="1" gradientUnits="userSpaceOnUse" gradientTransform="translate(-178.888 387.275) rotate(135) scale(11.1472 124.848)">
<stop stop-color="#F9EEB8"/>
<stop offset="0.04" stop-color="#EBE1AE"/>
<stop offset="0.23" stop-color="#A59D7A"/>
<stop offset="0.41" stop-color="#6A654E"/>
<stop offset="0.58" stop-color="#3C3A2D"/>
<stop offset="0.72" stop-color="#1B1A14"/>
<stop offset="0.85" stop-color="#070705"/>
<stop offset="0.93"/>
</radialGradient>
</defs>
</svg>
